<?xml version="1.0" encoding="UTF-8"?>
<svg id="Layer_2" data-name="Layer 2" xmlns="http://www.w3.org/2000/svg" viewBox="0 0 2196 799.96">
  <defs>
    <style>
      .cls-1 {
        fill: #79caa1;
      }
    </style>
  </defs>
  <g id="Layer_1-2" data-name="Layer 1">
    <path class="cls-1" d="M823.22,122.8l.63,106.15c12.52-7.34,23.85-18.44,37.4-23.72,53.54-20.87,111.73,1.28,142.21,48.43,11.52,17.82,21.24,34.51,25.3,55.97,4.86,25.71,4.8,50.9,3.15,77.4-2.11,33.88-4.42,67.62-18.23,99.06-19.78,45.03-57.5,91.44-104.68,110-25.1,9.87-55.33,13.17-81.91,6.06-39.91-10.68-71.16-47-78.63-87.19-4.87-26.17-1.56-51.64-2.45-77.68l-.99-91.22-60.95,9.83c-.92,37.18-2.98,73.2-6.77,109.96-2.97,28.78-12.35,53.15-28.55,77.02-16.76,24.69-38.28,47.75-67.93,56.92-19.86,6.14-42.82,6.55-63.13,2.2-43.48-9.3-77.07-39.65-98.02-77.72-4.79-8.7-9.19-16.14-11.34-25.7-11.89,41.42-56.06,76.22-93.8,91.29-53.76,21.48-116.82,26.09-172.77,8.24-46.97-14.99-83.37-52.72-105.94-94.61-7.26-13.48-13.1-25.03-16.82-39.7C4.55,406.94-2.34,348.18.71,289.19c1.84-35.56,7.54-69.82,13.82-104.42,4.78-26.36,13.69-49.06,25.01-73.57C61.33,64.02,100.42,21.13,151.92,5.72c32.4-9.69,69.29-5.2,101.54-.09,38.35,6.08,68.36,27.93,88.79,59.6,11.88,18.41,17.32,36.71,16.79,59.35-.42,18.02-5,38.26-22.22,48.78-16.05,9.79-40.26,5.06-54.56-6.51,3.24-13.05,11.73-20.8,15.86-32.57,7.51-21.41,7.27-45.79.23-66.84-8.32-24.88-27.63-38.49-51.72-43.88-21.28-4.76-39.18-2.11-57.46,10.22-20.19,13.61-37.39,29.14-50.11,50.85-16.76,28.62-30.79,59.54-36.81,92.69-5.65,31.12-8.5,61.61-10.61,93.03-3.04,45.35.99,89.27,10.51,133.8,7.25,33.93,19.77,67.29,40.2,95.56,33.42,46.26,102.08,60.25,156.8,50.22,21.17-3.88,41.63-9.84,58.28-23.65,16.96-14.05,31.82-28.84,43.97-47.59-11.17-57.58-5.04-84.13,3.88-139.31,6.9-42.68,25.84-82.62,58.98-110.62,25.46-21.51,55.21-33.06,88.75-32.93,21.37.08,43.6,2.89,61.4,16.03,21.1,15.58,39.03,36.23,51.54,59.22,8.73,16.04,10.77,33.74,16.06,51.35,21.26.64,42.13-4.95,62.63-8.72l1.77-48.2.34-216.43c26.25-2.67,52.1-5.87,78.26-11.57l-1.78,85.31ZM635.35,473.42c7.66-35.77,8.57-70.94,8.22-106.76-10.02-2.33-18.26-4.82-26.5-9.62-19.21-11.18-24.19-34.73-11.07-52.99,11.14-15.51,27.26-20.48,26.95-26.51-.94-18.12-36.75-41.33-59.01-44.07-16.62-2.04-32.64,6.96-44.39,18.57-21.78,21.51-35.52,50.23-40.69,80.79-6.82,40.33-7.59,80.37-4.12,121.16,2.65,31.17,14.2,61.85,40.14,80.91,15.93,11.7,40.84,13.61,59.03,7.01,25.36-9.21,45.9-42.67,51.43-68.48ZM891.88,545.81c41.52-13.64,58.42-54.35,65.71-94.05,8.74-47.6,8.75-96.06-3.95-142.79-7.61-28.01-24.77-53.34-50.51-66.74-21.84-11.37-46.86-4.14-65.53,9.53-10.46,7.67-15.26,16.24-15.21,29.58l.68,193.36c.08,23.58,1.98,57.27,25.52,67.42,13.1,5.65,28.54,8.52,43.29,3.68Z"/>
    <path class="cls-1" d="M1082.72,510.41c-20.06-53.45-15.09-126.43-2.29-180.95,6.76-28.81,20.93-55.39,38.36-79.18,17.24-23.52,41.68-40.35,68.79-50.24,13.2-4.82,27.38-5.38,40.84-4.84,33.35,1.35,51.15,28.77,71.8,51.59.23-6.12-5.13-8.94-8.31-13.54l5.26,2.34c1.13.5,1.5-2.4,2.18-4.27l.74-33.34,73.43.03.43,213.81c.06,27.98-.17,54.46,2.77,82.02,1.81,16.92,6.5,34.31,19.07,45.07,11.76,10.06,26.81,9.74,37.61-.58,13.08-12.5,24.41-28.22,28.85-46.33,3.87-15.77,5.73-31.88,5.78-48.53l1.08-391.71,70.85-11.3c2.14-.99,4.49-3.55,7.29-3.59l.54,113.36-.86,81.83c11.32-10.2,22.87-19.97,37.57-26.28,45.05-19.33,98.73-6.77,131.31,30.2,16.37,18.57,30.38,40.14,37.42,64.07,8.13,27.64,6.8,109.41,1.08,138-8.68,43.31-27.92,84.82-57.75,117.82-34.46,38.12-87.61,56.31-138.25,48.1-21.55-3.49-40.77-17.61-55.4-32.12-11.8-11.7-18.95-25.12-27.73-37.99-6.45,14.85-12.6,28.54-22.57,40.88-21.58,26.72-56.77,40.5-89.97,27.66-17.07-6.6-31.42-22.95-37.97-39.27l-12.11-30.17-14.49,20.21c-14.43,20.12-34.24,37.4-57.91,46.13-48.31,17.82-103.64-2.87-133.16-44.44-9.88-13.92-18.16-28.16-24.27-44.44ZM1238.21,543.47c17.39-4.36,29.11-18.69,39.4-31.34,11.2-13.77,16.46-28.52,16.69-46.39l2.31-179.5c.1-7.93,1.08-16.87-2.6-23.75-8.99-16.81-26.86-26.65-46.12-28.5-42.19-4.04-78.36,57.17-86.09,92.91-10.67,49.35-15.52,136.44,8.63,182.33,12.87,24.46,39.45,41.35,67.78,34.24ZM1653.63,523.95c15.3-19.27,25-42.43,30.18-66.43,13.34-61.79,12.19-141.94-25.89-195.2-13.11-18.33-40.85-28.71-62.43-24.21-19.84,4.14-34.69,18.39-48.63,31.33l.92,111.56,2.29,104.42c.41,18.62,5.49,36.11,17.45,50.53,22.67,27.36,68.73,9.89,86.11-12Z"/>
    <path class="cls-1" d="M2173.45,536.21c-8.07,12.98-14.59,25.13-25.75,35.06-21,18.68-46.58,31.29-73.23,38.82l-1.02,88.58c-.47,40.87-22.03,76.45-58.2,96.61-24.86,4.62-52.77,8.47-76.86-1.96s-38.71-36.45-43.99-61.52c-2.94-13.93-.58-29.64,4.68-42.62,13.87-34.2,51.41-52.15,81.41-69.46,6.18-3.57,12.39-7.52,17.2-12.8,1.7-14.22,1.98-28.05.84-42.96-32.25,37.34-89.96,53.81-132.26,30.26-40.09-22.32-62.47-64.64-61-110.45l-.09-207.55.68-80.15,76.88,1.23,1.51,222.49.82,67.7c.26,21.75,11.39,41.2,29.97,52.5,15.04,9.15,31.6,5.99,45.11-4.74,42.08-33.42,34.57-43.15,37.25-98.46l-.82-240.11,77.7,1.04-.15,180.33.67,211.3c24.2-7.51,46.72-17.52,64.71-35.42,11.45-11.39,17.28-26.47,23.62-41.06,8.76-18.38,14.68-36.44,18.64-56.86,4.72-1.4,11.1.29,14.21,4.72-2.88,26.27-10.99,51.22-22.54,75.5ZM2189.07,472.5c1.87-5.37,2.66-10.75-.2-11.93-6.27,1.84-1.98,9.41.2,11.93ZM1963.82,762.78c14.67-.13,28.08-17.29,29.97-30.05,4.67-31.55,4.45-61.47,4.39-93.55-30.94,15.07-87.35,44.7-76.81,87.45,4.27,17.33,22.47,36.33,42.45,36.15Z"/>
    <path class="cls-1" d="M2189.07,472.5c-2.18-2.52-6.47-10.09-.2-11.93,2.86,1.18,2.07,6.56.2,11.93Z"/>
  </g>
</svg>