<svg width="64" height="64" viewBox="0 0 64 64" fill="none" xmlns="http://www.w3.org/2000/svg">
<rect width="64" height="64" rx="16" fill="url(#paint0_linear_2_476)"/>
<path d="M28 32H28.0133" stroke="white" stroke-width="2.66667" stroke-linecap="round" stroke-linejoin="round"/>
<path d="M36 32H36.0133" stroke="white" stroke-width="2.66667" stroke-linecap="round" stroke-linejoin="round"/>
<path d="M29.3335 37.3333C30.0002 37.7333 30.9335 37.9999 32.0002 37.9999C33.0668 37.9999 34.0002 37.7333 34.6668 37.3333" stroke="white" stroke-width="2.66667" stroke-linecap="round" stroke-linejoin="round"/>
<path d="M41.3332 24.4C42.5411 25.9142 43.3646 27.6984 43.7332 29.6C44.184 29.8184 44.5643 30.1593 44.8303 30.5838C45.0964 31.0082 45.2375 31.499 45.2375 32C45.2375 32.501 45.0964 32.9918 44.8303 33.4162C44.5643 33.8407 44.184 34.1816 43.7332 34.4C43.1576 37.0846 41.6787 39.4907 39.5434 41.2167C37.4081 42.9427 34.7455 43.8843 31.9998 43.8843C29.2542 43.8843 26.5916 42.9427 24.4563 41.2167C22.3209 39.4907 20.8421 37.0846 20.2665 34.4C19.8156 34.1816 19.4354 33.8407 19.1694 33.4162C18.9033 32.9918 18.7622 32.501 18.7622 32C18.7622 31.499 18.9033 31.0082 19.1694 30.5838C19.4354 30.1593 19.8156 29.8184 20.2665 29.6C20.8189 26.894 22.2877 24.4614 24.4252 22.7125C26.5627 20.9636 29.238 20.0056 31.9998 20C34.6665 20 36.6665 21.4667 36.6665 23.3333C36.6665 25.2 35.4665 26.6667 33.9998 26.6667C32.9332 26.6667 31.9998 26.1333 31.9998 25.3333" stroke="white" stroke-width="2.66667" stroke-linecap="round" stroke-linejoin="round"/>
<defs>
<linearGradient id="paint0_linear_2_476" x1="0" y1="0" x2="64" y2="64" gradientUnits="userSpaceOnUse">
<stop stop-color="#79CAA1"/>
<stop offset="1" stop-color="#E48067"/>
</linearGradient>
</defs>
</svg>
